<?xml version="1.0" encoding="UTF-8" standalone="no"?>
<svg
   xmlns:dc="http://purl.org/dc/elements/1.1/"
   xmlns:cc="http://creativecommons.org/ns#"
   xmlns:rdf="http://www.w3.org/1999/02/22-rdf-syntax-ns#"
   xmlns:svg="http://www.w3.org/2000/svg"
   xmlns="http://www.w3.org/2000/svg"
   xmlns:sodipodi="http://sodipodi.sourceforge.net/DTD/sodipodi-0.dtd"
   xmlns:inkscape="http://www.inkscape.org/namespaces/inkscape"
   width="100"
   height="100"
   viewBox="0 0 100 100"
   version="1.1"
   id="svg4"
   sodipodi:docname="target.svg"
   inkscape:version="0.92.3 (2405546, 2018-03-11)">
  <metadata
     id="metadata10">
    <rdf:RDF>
      <cc:Work
         rdf:about="">
        <dc:format>image/svg+xml</dc:format>
        <dc:type
           rdf:resource="http://purl.org/dc/dcmitype/StillImage" />
        <dc:title />
      </cc:Work>
    </rdf:RDF>
  </metadata>
  <defs
     id="defs8" />
  <sodipodi:namedview
     pagecolor="#ffffff"
     bordercolor="#666666"
     borderopacity="1"
     objecttolerance="10"
     gridtolerance="10"
     guidetolerance="10"
     inkscape:pageopacity="0"
     inkscape:pageshadow="2"
     inkscape:window-width="1336"
     inkscape:window-height="741"
     id="namedview6"
     showgrid="false"
     inkscape:zoom="4.9166667"
     inkscape:cx="34.996266"
     inkscape:cy="46.346276"
     inkscape:window-x="30"
     inkscape:window-y="0"
     inkscape:window-maximized="1"
     inkscape:current-layer="svg4"
     fit-margin-top="0"
     fit-margin-left="0"
     fit-margin-right="0"
     fit-margin-bottom="0" />
  <path
     d="M 50,8.3333333 C 72.975,8.3333333 91.666667,27.025 91.666667,50 91.666667,72.975 72.975,91.666667 50,91.666667 27.025,91.666667 8.3333333,72.975 8.3333333,50 8.3333333,27.025 27.025,8.3333333 50,8.3333333 Z M 50,0 C 22.3875,0 0,22.3875 0,50 0,77.6125 22.3875,100 50,100 77.6125,100 100,77.6125 100,50 100,22.3875 77.6125,0 50,0 Z m 0,25 C 63.7875,25 75,36.2125 75,50 75,63.7875 63.7875,75 50,75 36.2125,75 25,63.7875 25,50 25,36.2125 36.2125,25 50,25 Z m 0,-8.333333 c -18.408333,0 -33.333333,14.925 -33.333333,33.333333 0,18.408333 14.925,33.333333 33.333333,33.333333 18.408333,0 33.333333,-14.925 33.333333,-33.333333 0,-18.408333 -14.925,-33.333333 -33.333333,-33.333333 z m 0,16.666666 c -9.204167,0 -16.666667,7.4625 -16.666667,16.666667 0,9.204167 7.4625,16.666667 16.666667,16.666667 9.204167,0 16.666667,-7.4625 16.666667,-16.666667 0,-9.204167 -7.4625,-16.666667 -16.666667,-16.666667 z"
     id="path2"
     inkscape:connector-curvature="0"
     style="stroke-width:4.16666651;fill:#35b88f;fill-opacity:1" />
</svg>
